<mxfile host="Electron" agent="Mozilla/5.0 (Windows NT 10.0; Win64; x64) AppleWebKit/537.36 (KHTML, like Gecko) draw.io/26.2.15 Chrome/134.0.6998.205 Electron/35.2.1 Safari/537.36" version="26.2.15">
  <diagram id="C5RBs43oDa-KdzZeNtuy" name="Page-1">
    <mxGraphModel dx="1042" dy="660" grid="1" gridSize="10" guides="1" tooltips="1" connect="1" arrows="1" fold="1" page="1" pageScale="1" pageWidth="1654" pageHeight="2336" math="0" shadow="0">
      <root>
        <mxCell id="WIyWlLk6GJQsqaUBKTNV-0" />
        <mxCell id="WIyWlLk6GJQsqaUBKTNV-1" parent="WIyWlLk6GJQsqaUBKTNV-0" />
        <mxCell id="mR8ZVarws3Q5Agm58Nef-257" style="edgeStyle=orthogonalEdgeStyle;rounded=0;orthogonalLoop=1;jettySize=auto;html=1;exitX=0.5;exitY=0;exitDx=0;exitDy=0;entryX=0.5;entryY=1;entryDx=0;entryDy=0;" parent="WIyWlLk6GJQsqaUBKTNV-1" source="mR8ZVarws3Q5Agm58Nef-204" target="mR8ZVarws3Q5Agm58Nef-227" edge="1">
          <mxGeometry relative="1" as="geometry">
            <mxPoint x="994" y="440" as="targetPoint" />
          </mxGeometry>
        </mxCell>
        <mxCell id="mR8ZVarws3Q5Agm58Nef-204" value="&amp;lt;&amp;lt;Caracter&amp;gt;&amp;gt;" style="swimlane;fontStyle=1;align=center;verticalAlign=top;childLayout=stackLayout;horizontal=1;startSize=26;horizontalStack=0;resizeParent=1;resizeParentMax=0;resizeLast=0;collapsible=1;marginBottom=0;whiteSpace=wrap;html=1;" parent="WIyWlLk6GJQsqaUBKTNV-1" vertex="1">
          <mxGeometry x="894" y="480" width="280" height="230" as="geometry" />
        </mxCell>
        <mxCell id="mR8ZVarws3Q5Agm58Nef-205" value="&lt;div&gt;+name:String&lt;/div&gt;&lt;div&gt;+viata:int&lt;/div&gt;&lt;div&gt;+atac:int&lt;/div&gt;&lt;div&gt;&lt;br&gt;&lt;/div&gt;&lt;div&gt;&lt;br&gt;&lt;/div&gt;" style="text;strokeColor=none;fillColor=none;align=left;verticalAlign=top;spacingLeft=4;spacingRight=4;overflow=hidden;rotatable=0;points=[[0,0.5],[1,0.5]];portConstraint=eastwest;whiteSpace=wrap;html=1;" parent="mR8ZVarws3Q5Agm58Nef-204" vertex="1">
          <mxGeometry y="26" width="280" height="74" as="geometry" />
        </mxCell>
        <mxCell id="mR8ZVarws3Q5Agm58Nef-206" value="" style="line;strokeWidth=1;fillColor=none;align=left;verticalAlign=middle;spacingTop=-1;spacingLeft=3;spacingRight=3;rotatable=0;labelPosition=right;points=[];portConstraint=eastwest;strokeColor=inherit;" parent="mR8ZVarws3Q5Agm58Nef-204" vertex="1">
          <mxGeometry y="100" width="280" height="8" as="geometry" />
        </mxCell>
        <mxCell id="mR8ZVarws3Q5Agm58Nef-207" value="+afiseazaStatistici():void&lt;div&gt;+esteViu():boolean&lt;/div&gt;&lt;div&gt;+primesteLovitura(int damage):void&lt;/div&gt;&lt;div&gt;&amp;lt;&amp;lt;+ataca(tinta:Caracter):void&amp;gt;&amp;gt;&lt;/div&gt;&lt;div&gt;+toString:String&lt;/div&gt;&lt;div&gt;+adaugaVictorii():void&lt;/div&gt;&lt;div&gt;+getVictorii():int&lt;/div&gt;" style="text;strokeColor=none;fillColor=none;align=left;verticalAlign=top;spacingLeft=4;spacingRight=4;overflow=hidden;rotatable=0;points=[[0,0.5],[1,0.5]];portConstraint=eastwest;whiteSpace=wrap;html=1;" parent="mR8ZVarws3Q5Agm58Nef-204" vertex="1">
          <mxGeometry y="108" width="280" height="122" as="geometry" />
        </mxCell>
        <mxCell id="mR8ZVarws3Q5Agm58Nef-208" value="Razboinic" style="swimlane;fontStyle=1;align=center;verticalAlign=top;childLayout=stackLayout;horizontal=1;startSize=26;horizontalStack=0;resizeParent=1;resizeParentMax=0;resizeLast=0;collapsible=1;marginBottom=0;whiteSpace=wrap;html=1;" parent="WIyWlLk6GJQsqaUBKTNV-1" vertex="1">
          <mxGeometry x="914" y="750" width="190" height="212" as="geometry" />
        </mxCell>
        <mxCell id="mR8ZVarws3Q5Agm58Nef-209" value="&lt;div&gt;+numarRaz:static int&lt;/div&gt;&lt;div&gt;+critica:int&lt;/div&gt;&lt;div&gt;+victorii:static int&lt;/div&gt;&lt;div&gt;+energie:int&lt;/div&gt;" style="text;strokeColor=none;fillColor=none;align=left;verticalAlign=top;spacingLeft=4;spacingRight=4;overflow=hidden;rotatable=0;points=[[0,0.5],[1,0.5]];portConstraint=eastwest;whiteSpace=wrap;html=1;" parent="mR8ZVarws3Q5Agm58Nef-208" vertex="1">
          <mxGeometry y="26" width="190" height="74" as="geometry" />
        </mxCell>
        <mxCell id="mR8ZVarws3Q5Agm58Nef-210" value="" style="line;strokeWidth=1;fillColor=none;align=left;verticalAlign=middle;spacingTop=-1;spacingLeft=3;spacingRight=3;rotatable=0;labelPosition=right;points=[];portConstraint=eastwest;strokeColor=inherit;" parent="mR8ZVarws3Q5Agm58Nef-208" vertex="1">
          <mxGeometry y="100" width="190" height="30" as="geometry" />
        </mxCell>
        <mxCell id="mR8ZVarws3Q5Agm58Nef-211" value="+getContor():int&lt;div&gt;+activateBonusDamage():void&lt;/div&gt;&lt;div&gt;+verificaEnergie():void&lt;/div&gt;" style="text;strokeColor=none;fillColor=none;align=left;verticalAlign=top;spacingLeft=4;spacingRight=4;overflow=hidden;rotatable=0;points=[[0,0.5],[1,0.5]];portConstraint=eastwest;whiteSpace=wrap;html=1;" parent="mR8ZVarws3Q5Agm58Nef-208" vertex="1">
          <mxGeometry y="130" width="190" height="82" as="geometry" />
        </mxCell>
        <mxCell id="mR8ZVarws3Q5Agm58Nef-212" value="Mag" style="swimlane;fontStyle=1;align=center;verticalAlign=top;childLayout=stackLayout;horizontal=1;startSize=26;horizontalStack=0;resizeParent=1;resizeParentMax=0;resizeLast=0;collapsible=1;marginBottom=0;whiteSpace=wrap;html=1;" parent="WIyWlLk6GJQsqaUBKTNV-1" vertex="1">
          <mxGeometry x="710" y="750" width="160" height="230" as="geometry" />
        </mxCell>
        <mxCell id="mR8ZVarws3Q5Agm58Nef-213" value="+mana:int&lt;div&gt;+numarMagi:static int&lt;/div&gt;&lt;div&gt;+armura:int&lt;/div&gt;&lt;div&gt;+victorii:static int&lt;/div&gt;&lt;div&gt;+manaMaxima:int&lt;/div&gt;" style="text;strokeColor=none;fillColor=none;align=left;verticalAlign=top;spacingLeft=4;spacingRight=4;overflow=hidden;rotatable=0;points=[[0,0.5],[1,0.5]];portConstraint=eastwest;whiteSpace=wrap;html=1;" parent="mR8ZVarws3Q5Agm58Nef-212" vertex="1">
          <mxGeometry y="26" width="160" height="94" as="geometry" />
        </mxCell>
        <mxCell id="mR8ZVarws3Q5Agm58Nef-214" value="" style="line;strokeWidth=1;fillColor=none;align=left;verticalAlign=middle;spacingTop=-1;spacingLeft=3;spacingRight=3;rotatable=0;labelPosition=right;points=[];portConstraint=eastwest;strokeColor=inherit;" parent="mR8ZVarws3Q5Agm58Nef-212" vertex="1">
          <mxGeometry y="120" width="160" height="8" as="geometry" />
        </mxCell>
        <mxCell id="mR8ZVarws3Q5Agm58Nef-215" value="+getContor():int&lt;div&gt;+activateArmour():void&lt;/div&gt;&lt;div&gt;+verificaMana():void&lt;/div&gt;&lt;div&gt;+regenerareMana():void&lt;/div&gt;&lt;div&gt;&lt;br&gt;&lt;/div&gt;&lt;div&gt;&lt;br&gt;&lt;/div&gt;" style="text;strokeColor=none;fillColor=none;align=left;verticalAlign=top;spacingLeft=4;spacingRight=4;overflow=hidden;rotatable=0;points=[[0,0.5],[1,0.5]];portConstraint=eastwest;whiteSpace=wrap;html=1;" parent="mR8ZVarws3Q5Agm58Nef-212" vertex="1">
          <mxGeometry y="128" width="160" height="102" as="geometry" />
        </mxCell>
        <mxCell id="mR8ZVarws3Q5Agm58Nef-216" value="Arcas" style="swimlane;fontStyle=1;align=center;verticalAlign=top;childLayout=stackLayout;horizontal=1;startSize=26;horizontalStack=0;resizeParent=1;resizeParentMax=0;resizeLast=0;collapsible=1;marginBottom=0;whiteSpace=wrap;html=1;" parent="WIyWlLk6GJQsqaUBKTNV-1" vertex="1">
          <mxGeometry x="1140" y="750" width="200" height="220" as="geometry" />
        </mxCell>
        <mxCell id="mR8ZVarws3Q5Agm58Nef-217" value="+nrsageti:int&lt;div&gt;+numarArc:static int&lt;/div&gt;&lt;div&gt;+precizie:int&lt;/div&gt;&lt;div&gt;+victorii:static int&lt;/div&gt;" style="text;strokeColor=none;fillColor=none;align=left;verticalAlign=top;spacingLeft=4;spacingRight=4;overflow=hidden;rotatable=0;points=[[0,0.5],[1,0.5]];portConstraint=eastwest;whiteSpace=wrap;html=1;" parent="mR8ZVarws3Q5Agm58Nef-216" vertex="1">
          <mxGeometry y="26" width="200" height="74" as="geometry" />
        </mxCell>
        <mxCell id="mR8ZVarws3Q5Agm58Nef-218" value="" style="line;strokeWidth=1;fillColor=none;align=left;verticalAlign=middle;spacingTop=-1;spacingLeft=3;spacingRight=3;rotatable=0;labelPosition=right;points=[];portConstraint=eastwest;strokeColor=inherit;" parent="mR8ZVarws3Q5Agm58Nef-216" vertex="1">
          <mxGeometry y="100" width="200" height="30" as="geometry" />
        </mxCell>
        <mxCell id="mR8ZVarws3Q5Agm58Nef-219" value="+getContor():int&lt;div&gt;+adaugaPrecizie():void&lt;/div&gt;&lt;div&gt;+verificareSageti(String mesaj):void&lt;/div&gt;&lt;div&gt;&lt;br&gt;&lt;/div&gt;&lt;div&gt;&lt;br&gt;&lt;/div&gt;&lt;div&gt;&lt;br&gt;&lt;/div&gt;" style="text;strokeColor=none;fillColor=none;align=left;verticalAlign=top;spacingLeft=4;spacingRight=4;overflow=hidden;rotatable=0;points=[[0,0.5],[1,0.5]];portConstraint=eastwest;whiteSpace=wrap;html=1;" parent="mR8ZVarws3Q5Agm58Nef-216" vertex="1">
          <mxGeometry y="130" width="200" height="90" as="geometry" />
        </mxCell>
        <mxCell id="mR8ZVarws3Q5Agm58Nef-221" style="edgeStyle=orthogonalEdgeStyle;rounded=0;orthogonalLoop=1;jettySize=auto;html=1;exitX=0.5;exitY=0;exitDx=0;exitDy=0;entryX=0.993;entryY=0.808;entryDx=0;entryDy=0;entryPerimeter=0;" parent="WIyWlLk6GJQsqaUBKTNV-1" source="mR8ZVarws3Q5Agm58Nef-216" target="mR8ZVarws3Q5Agm58Nef-207" edge="1">
          <mxGeometry relative="1" as="geometry" />
        </mxCell>
        <mxCell id="mR8ZVarws3Q5Agm58Nef-222" style="edgeStyle=orthogonalEdgeStyle;rounded=0;orthogonalLoop=1;jettySize=auto;html=1;exitX=0.5;exitY=0;exitDx=0;exitDy=0;entryX=0.014;entryY=0.758;entryDx=0;entryDy=0;entryPerimeter=0;" parent="WIyWlLk6GJQsqaUBKTNV-1" source="mR8ZVarws3Q5Agm58Nef-212" target="mR8ZVarws3Q5Agm58Nef-207" edge="1">
          <mxGeometry relative="1" as="geometry" />
        </mxCell>
        <mxCell id="mR8ZVarws3Q5Agm58Nef-227" value="MiniGame" style="swimlane;fontStyle=1;align=center;verticalAlign=top;childLayout=stackLayout;horizontal=1;startSize=26;horizontalStack=0;resizeParent=1;resizeParentMax=0;resizeLast=0;collapsible=1;marginBottom=0;whiteSpace=wrap;html=1;" parent="WIyWlLk6GJQsqaUBKTNV-1" vertex="1">
          <mxGeometry x="914" y="320" width="220" height="132" as="geometry" />
        </mxCell>
        <mxCell id="mR8ZVarws3Q5Agm58Nef-228" value="+descriere:String&lt;div&gt;+reguli:String&lt;/div&gt;&lt;div&gt;&lt;br&gt;&lt;/div&gt;" style="text;strokeColor=none;fillColor=none;align=left;verticalAlign=top;spacingLeft=4;spacingRight=4;overflow=hidden;rotatable=0;points=[[0,0.5],[1,0.5]];portConstraint=eastwest;whiteSpace=wrap;html=1;" parent="mR8ZVarws3Q5Agm58Nef-227" vertex="1">
          <mxGeometry y="26" width="220" height="54" as="geometry" />
        </mxCell>
        <mxCell id="mR8ZVarws3Q5Agm58Nef-229" value="" style="line;strokeWidth=1;fillColor=none;align=left;verticalAlign=middle;spacingTop=-1;spacingLeft=3;spacingRight=3;rotatable=0;labelPosition=right;points=[];portConstraint=eastwest;strokeColor=inherit;" parent="mR8ZVarws3Q5Agm58Nef-227" vertex="1">
          <mxGeometry y="80" width="220" height="8" as="geometry" />
        </mxCell>
        <mxCell id="mR8ZVarws3Q5Agm58Nef-230" value="+toString:String" style="text;strokeColor=none;fillColor=none;align=left;verticalAlign=top;spacingLeft=4;spacingRight=4;overflow=hidden;rotatable=0;points=[[0,0.5],[1,0.5]];portConstraint=eastwest;whiteSpace=wrap;html=1;" parent="mR8ZVarws3Q5Agm58Nef-227" vertex="1">
          <mxGeometry y="88" width="220" height="44" as="geometry" />
        </mxCell>
        <mxCell id="mR8ZVarws3Q5Agm58Nef-268" style="edgeStyle=orthogonalEdgeStyle;rounded=0;orthogonalLoop=1;jettySize=auto;html=1;exitX=0.5;exitY=0;exitDx=0;exitDy=0;entryX=-0.008;entryY=0.047;entryDx=0;entryDy=0;entryPerimeter=0;" parent="WIyWlLk6GJQsqaUBKTNV-1" source="mR8ZVarws3Q5Agm58Nef-231" target="mR8ZVarws3Q5Agm58Nef-230" edge="1">
          <mxGeometry relative="1" as="geometry">
            <mxPoint x="820" y="479.66666666666674" as="targetPoint" />
          </mxGeometry>
        </mxCell>
        <mxCell id="mR8ZVarws3Q5Agm58Nef-231" value="Meci" style="swimlane;fontStyle=1;align=center;verticalAlign=top;childLayout=stackLayout;horizontal=1;startSize=26;horizontalStack=0;resizeParent=1;resizeParentMax=0;resizeLast=0;collapsible=1;marginBottom=0;whiteSpace=wrap;html=1;" parent="WIyWlLk6GJQsqaUBKTNV-1" vertex="1">
          <mxGeometry x="330" y="480" width="160" height="180" as="geometry" />
        </mxCell>
        <mxCell id="mR8ZVarws3Q5Agm58Nef-232" value="+numarMaxSpectatori: int&lt;div&gt;+durataLuptei: double&lt;/div&gt;&lt;div&gt;+numarMaxLuptatori: int&lt;/div&gt;&lt;div&gt;+spectatori:String[]&lt;/div&gt;" style="text;strokeColor=none;fillColor=none;align=left;verticalAlign=top;spacingLeft=4;spacingRight=4;overflow=hidden;rotatable=0;points=[[0,0.5],[1,0.5]];portConstraint=eastwest;whiteSpace=wrap;html=1;" parent="mR8ZVarws3Q5Agm58Nef-231" vertex="1">
          <mxGeometry y="26" width="160" height="94" as="geometry" />
        </mxCell>
        <mxCell id="mR8ZVarws3Q5Agm58Nef-233" value="" style="line;strokeWidth=1;fillColor=none;align=left;verticalAlign=middle;spacingTop=-1;spacingLeft=3;spacingRight=3;rotatable=0;labelPosition=right;points=[];portConstraint=eastwest;strokeColor=inherit;" parent="mR8ZVarws3Q5Agm58Nef-231" vertex="1">
          <mxGeometry y="120" width="160" height="8" as="geometry" />
        </mxCell>
        <mxCell id="mR8ZVarws3Q5Agm58Nef-234" value="+afiseazaDetaliiMeci():void&lt;div&gt;+stareSpectatori():void&lt;br&gt;&lt;div&gt;&lt;br&gt;&lt;/div&gt;&lt;/div&gt;" style="text;strokeColor=none;fillColor=none;align=left;verticalAlign=top;spacingLeft=4;spacingRight=4;overflow=hidden;rotatable=0;points=[[0,0.5],[1,0.5]];portConstraint=eastwest;whiteSpace=wrap;html=1;" parent="mR8ZVarws3Q5Agm58Nef-231" vertex="1">
          <mxGeometry y="128" width="160" height="52" as="geometry" />
        </mxCell>
        <mxCell id="mR8ZVarws3Q5Agm58Nef-235" value="OneVsOne" style="swimlane;fontStyle=1;align=center;verticalAlign=top;childLayout=stackLayout;horizontal=1;startSize=26;horizontalStack=0;resizeParent=1;resizeParentMax=0;resizeLast=0;collapsible=1;marginBottom=0;whiteSpace=wrap;html=1;" parent="WIyWlLk6GJQsqaUBKTNV-1" vertex="1">
          <mxGeometry x="200" y="780" width="220" height="150" as="geometry" />
        </mxCell>
        <mxCell id="mR8ZVarws3Q5Agm58Nef-236" value="luptator1: Caracter&lt;div&gt;luptator2: Caracter&lt;/div&gt;" style="text;strokeColor=none;fillColor=none;align=left;verticalAlign=top;spacingLeft=4;spacingRight=4;overflow=hidden;rotatable=0;points=[[0,0.5],[1,0.5]];portConstraint=eastwest;whiteSpace=wrap;html=1;" parent="mR8ZVarws3Q5Agm58Nef-235" vertex="1">
          <mxGeometry y="26" width="220" height="54" as="geometry" />
        </mxCell>
        <mxCell id="mR8ZVarws3Q5Agm58Nef-237" value="" style="line;strokeWidth=1;fillColor=none;align=left;verticalAlign=middle;spacingTop=-1;spacingLeft=3;spacingRight=3;rotatable=0;labelPosition=right;points=[];portConstraint=eastwest;strokeColor=inherit;" parent="mR8ZVarws3Q5Agm58Nef-235" vertex="1">
          <mxGeometry y="80" width="220" height="8" as="geometry" />
        </mxCell>
        <mxCell id="mR8ZVarws3Q5Agm58Nef-238" value="+startMeci():void&lt;div&gt;+stopMeci():voi&lt;/div&gt;&lt;div&gt;+afiseazaStatisticiDuel():void&lt;/div&gt;" style="text;strokeColor=none;fillColor=none;align=left;verticalAlign=top;spacingLeft=4;spacingRight=4;overflow=hidden;rotatable=0;points=[[0,0.5],[1,0.5]];portConstraint=eastwest;whiteSpace=wrap;html=1;" parent="mR8ZVarws3Q5Agm58Nef-235" vertex="1">
          <mxGeometry y="88" width="220" height="62" as="geometry" />
        </mxCell>
        <mxCell id="mR8ZVarws3Q5Agm58Nef-243" style="edgeStyle=orthogonalEdgeStyle;rounded=0;orthogonalLoop=1;jettySize=auto;html=1;exitX=0.5;exitY=0;exitDx=0;exitDy=0;entryX=-0.002;entryY=0.75;entryDx=0;entryDy=0;entryPerimeter=0;" parent="WIyWlLk6GJQsqaUBKTNV-1" source="mR8ZVarws3Q5Agm58Nef-235" target="mR8ZVarws3Q5Agm58Nef-234" edge="1">
          <mxGeometry relative="1" as="geometry">
            <Array as="points">
              <mxPoint x="290" y="780" />
              <mxPoint x="290" y="594" />
              <mxPoint x="330" y="594" />
            </Array>
          </mxGeometry>
        </mxCell>
        <mxCell id="mR8ZVarws3Q5Agm58Nef-267" style="edgeStyle=orthogonalEdgeStyle;rounded=0;orthogonalLoop=1;jettySize=auto;html=1;exitX=0.5;exitY=0;exitDx=0;exitDy=0;" parent="WIyWlLk6GJQsqaUBKTNV-1" source="mR8ZVarws3Q5Agm58Nef-263" target="mR8ZVarws3Q5Agm58Nef-234" edge="1">
          <mxGeometry relative="1" as="geometry" />
        </mxCell>
        <mxCell id="mR8ZVarws3Q5Agm58Nef-263" value="AllForOne" style="swimlane;fontStyle=1;align=center;verticalAlign=top;childLayout=stackLayout;horizontal=1;startSize=26;horizontalStack=0;resizeParent=1;resizeParentMax=0;resizeLast=0;collapsible=1;marginBottom=0;whiteSpace=wrap;html=1;" parent="WIyWlLk6GJQsqaUBKTNV-1" vertex="1">
          <mxGeometry x="490" y="780" width="180" height="160" as="geometry" />
        </mxCell>
        <mxCell id="mR8ZVarws3Q5Agm58Nef-264" value="+boss:Caracter&lt;br&gt;&lt;div&gt;+caractere:ArrayList&amp;lt;Caracter&amp;gt;&lt;/div&gt;&lt;div&gt;&lt;br&gt;&lt;/div&gt;&lt;div&gt;&lt;br&gt;&lt;/div&gt;&lt;div&gt;&lt;br&gt;&lt;/div&gt;" style="text;strokeColor=none;fillColor=none;align=left;verticalAlign=top;spacingLeft=4;spacingRight=4;overflow=hidden;rotatable=0;points=[[0,0.5],[1,0.5]];portConstraint=eastwest;whiteSpace=wrap;html=1;" parent="mR8ZVarws3Q5Agm58Nef-263" vertex="1">
          <mxGeometry y="26" width="180" height="56" as="geometry" />
        </mxCell>
        <mxCell id="mR8ZVarws3Q5Agm58Nef-265" value="" style="line;strokeWidth=1;fillColor=none;align=left;verticalAlign=middle;spacingTop=-1;spacingLeft=3;spacingRight=3;rotatable=0;labelPosition=right;points=[];portConstraint=eastwest;strokeColor=inherit;" parent="mR8ZVarws3Q5Agm58Nef-263" vertex="1">
          <mxGeometry y="82" width="180" height="8" as="geometry" />
        </mxCell>
        <mxCell id="mR8ZVarws3Q5Agm58Nef-266" value="+startLupta():void&lt;div&gt;+afiseazaRezultat():void&lt;/div&gt;&lt;div&gt;verificaStareBoss(): boolean&lt;/div&gt;" style="text;strokeColor=none;fillColor=none;align=left;verticalAlign=top;spacingLeft=4;spacingRight=4;overflow=hidden;rotatable=0;points=[[0,0.5],[1,0.5]];portConstraint=eastwest;whiteSpace=wrap;html=1;" parent="mR8ZVarws3Q5Agm58Nef-263" vertex="1">
          <mxGeometry y="90" width="180" height="70" as="geometry" />
        </mxCell>
        <mxCell id="mR8ZVarws3Q5Agm58Nef-273" style="edgeStyle=orthogonalEdgeStyle;rounded=0;orthogonalLoop=1;jettySize=auto;html=1;exitX=0.5;exitY=0;exitDx=0;exitDy=0;entryX=1;entryY=0.5;entryDx=0;entryDy=0;" parent="WIyWlLk6GJQsqaUBKTNV-1" source="mR8ZVarws3Q5Agm58Nef-269" target="mR8ZVarws3Q5Agm58Nef-205" edge="1">
          <mxGeometry relative="1" as="geometry" />
        </mxCell>
        <mxCell id="mR8ZVarws3Q5Agm58Nef-269" value="Boss" style="swimlane;fontStyle=1;align=center;verticalAlign=top;childLayout=stackLayout;horizontal=1;startSize=26;horizontalStack=0;resizeParent=1;resizeParentMax=0;resizeLast=0;collapsible=1;marginBottom=0;whiteSpace=wrap;html=1;" parent="WIyWlLk6GJQsqaUBKTNV-1" vertex="1">
          <mxGeometry x="1380" y="750" width="160" height="170" as="geometry" />
        </mxCell>
        <mxCell id="mR8ZVarws3Q5Agm58Nef-270" value="+armura:int&lt;div&gt;+precizie:int&lt;/div&gt;&lt;div&gt;+critica:int&lt;/div&gt;&lt;div&gt;+viataMaxima:int&lt;/div&gt;" style="text;strokeColor=none;fillColor=none;align=left;verticalAlign=top;spacingLeft=4;spacingRight=4;overflow=hidden;rotatable=0;points=[[0,0.5],[1,0.5]];portConstraint=eastwest;whiteSpace=wrap;html=1;" parent="mR8ZVarws3Q5Agm58Nef-269" vertex="1">
          <mxGeometry y="26" width="160" height="74" as="geometry" />
        </mxCell>
        <mxCell id="mR8ZVarws3Q5Agm58Nef-271" value="" style="line;strokeWidth=1;fillColor=none;align=left;verticalAlign=middle;spacingTop=-1;spacingLeft=3;spacingRight=3;rotatable=0;labelPosition=right;points=[];portConstraint=eastwest;strokeColor=inherit;" parent="mR8ZVarws3Q5Agm58Nef-269" vertex="1">
          <mxGeometry y="100" width="160" height="8" as="geometry" />
        </mxCell>
        <mxCell id="mR8ZVarws3Q5Agm58Nef-272" value="+activatePowers():void&lt;div&gt;+regenerare():void&lt;/div&gt;&lt;div&gt;&lt;br&gt;&lt;/div&gt;&lt;div&gt;&lt;br&gt;&lt;/div&gt;" style="text;strokeColor=none;fillColor=none;align=left;verticalAlign=top;spacingLeft=4;spacingRight=4;overflow=hidden;rotatable=0;points=[[0,0.5],[1,0.5]];portConstraint=eastwest;whiteSpace=wrap;html=1;" parent="mR8ZVarws3Q5Agm58Nef-269" vertex="1">
          <mxGeometry y="108" width="160" height="62" as="geometry" />
        </mxCell>
        <mxCell id="Cf-DiM9X21Gw07qtvczD-0" style="edgeStyle=orthogonalEdgeStyle;rounded=0;orthogonalLoop=1;jettySize=auto;html=1;exitX=0.5;exitY=0;exitDx=0;exitDy=0;entryX=0.409;entryY=1.036;entryDx=0;entryDy=0;entryPerimeter=0;" edge="1" parent="WIyWlLk6GJQsqaUBKTNV-1" source="mR8ZVarws3Q5Agm58Nef-208" target="mR8ZVarws3Q5Agm58Nef-207">
          <mxGeometry relative="1" as="geometry" />
        </mxCell>
      </root>
    </mxGraphModel>
  </diagram>
</mxfile>
